# Blender v2.72 (sub 0) OBJ File: ''
# www.blender.org
mtllib building.mtl
o Cube
v 0.731069 0.057924 -1.120681
v 0.731069 0.057924 0.577437
v -0.967049 0.057924 0.577437
v -0.967049 0.057924 -1.120681
v 0.731069 5.717196 -1.120680
v 0.731068 5.717196 0.577438
v -0.967050 5.717196 0.577437
v -0.967049 5.717196 -1.120681
vt 0.500000 0.769196
vt 0.750000 0.769196
vt 0.750000 1.000000
vt 0.500000 1.000000
vt 0.000000 0.769196
vt 0.250000 0.769195
vt 0.250000 1.000000
vt 0.000000 1.000000
vt 0.750000 0.000000
vt 0.500000 0.000000
vt 1.000000 0.000000
vt 1.000000 0.769196
vt 0.250000 0.000000
vt 0.000000 0.000000
vn 0.000000 -1.000000 0.000000
vn 0.000000 1.000000 0.000000
vn 1.000000 0.000000 0.000000
vn -0.000000 -0.000000 1.000000
vn -1.000000 -0.000000 -0.000000
vn 0.000000 0.000000 -1.000000
usemtl Material
s off
f 1/1/1 2/2/1 3/3/1 4/4/1
f 5/5/2 8/6/2 7/7/2 6/8/2
f 1/9/3 5/2/3 6/1/3 2/10/3
f 2/11/4 6/12/4 7/2/4 3/9/4
f 3/6/5 7/13/5 8/10/5 4/1/5
f 5/13/6 1/6/6 4/5/6 8/14/6
