# Blender v2.75 (sub 0) OBJ File: 'car2.blend'
# www.blender.org
mtllib car2.mtl
o Cube
v 0.657602 1.618839 -1.338327
v 0.657601 1.618839 0.012449
v -1.342399 1.618839 0.012448
v -1.342398 1.618839 -1.338328
v 0.657602 1.172919 -1.987551
v 0.657601 1.172919 1.012449
v -1.342399 1.172919 1.012448
v -1.342398 1.172919 -1.987552
v 0.657602 0.337079 -2.987552
v 0.657601 0.337079 1.012448
v -1.342399 0.337079 1.012448
v -1.342398 0.337079 -2.987552
v 0.657602 0.420663 -2.787552
v 0.657601 0.420663 1.712448
v 0.657601 0.420663 1.952448
v -1.342399 0.420663 1.952448
v 0.657601 0.337079 1.012448
v 0.657601 1.172919 1.012449
v -1.342399 0.337079 1.012448
v -1.342399 1.172919 1.012448
v -1.342399 0.754999 1.952448
v -1.342399 0.337079 1.952448
v 0.657601 0.754999 1.952449
v 0.657601 0.337079 1.952448
v 0.657601 0.337079 1.712448
v -1.342399 0.337079 1.712448
v -1.342399 1.172919 1.712448
v 0.657601 1.172919 1.712449
v 0.657602 0.754999 -1.987551
v 0.657601 0.754999 1.012449
v -1.342399 0.754999 1.012448
v -1.342398 0.754999 -1.987552
v 0.657601 0.754999 1.012449
v -1.342399 0.754999 1.012448
v 0.657601 0.754999 2.012449
v -1.342399 0.754999 2.012448
v 0.657601 0.754999 1.712448
v -1.342399 0.754999 1.712448
v 0.657602 0.754999 -2.987551
v -1.342398 0.754999 -2.987552
v 0.657602 0.337079 -2.987552
v -1.342398 0.337079 -2.987552
v -1.342398 0.754999 -2.737552
v -1.342398 0.337079 -2.987552
v 0.657602 1.172920 -2.737551
v -1.342398 1.172920 -2.737552
v 0.657602 0.337079 -2.987552
v 0.657602 0.754999 -2.737551
v 0.657601 0.420663 1.012448
v -1.342399 0.420663 1.012448
v -1.342398 0.420663 -2.787552
v 0.657601 0.420663 1.012448
v -1.342399 0.420663 1.012448
v 0.657601 0.420663 2.012448
v -1.342399 0.420663 2.012448
v -1.342399 0.420663 1.712448
v 0.657602 0.420663 -2.987552
v -1.342398 0.420663 -2.987552
v 0.657602 0.420663 -2.937551
v -1.342398 0.420663 -2.937552
vt 0.234902 0.756401
vt 0.000148 0.756401
vt 0.000148 0.597851
vt 0.234902 0.597851
vt 0.582516 0.554298
vt 0.448091 0.570545
vt 0.242283 0.462989
vt 0.125427 0.315423
vt 0.000148 0.312037
vt 0.006332 0.083201
vt 0.131611 0.086586
vt 0.325454 0.000148
vt 0.587292 0.000148
vt 0.713140 0.086587
vt 0.469952 0.597851
vt 0.469952 0.690299
vt 0.235198 0.690299
vt 0.235198 0.597851
vt 0.244620 0.139115
vt 0.705473 0.161118
vt 0.211308 0.328590
vt 0.137065 0.303995
vt 0.204286 0.326553
vt 0.609707 0.488638
vt 0.825046 0.248607
vt 0.812827 0.229671
vt 0.833174 0.238511
vt 0.847188 0.247240
vt 0.741449 0.471634
vt 0.765948 0.465462
vt 0.727632 0.525430
vt 0.835292 0.364293
vt 0.818706 0.347043
vt 0.921898 0.247822
vt 0.938485 0.265073
vt 0.239952 0.224012
vt 0.218591 0.277200
vt 0.208077 0.265885
vt 0.224869 0.239497
vt 0.258467 0.327605
vt 0.249789 0.317997
vt 0.244555 0.318556
vt 0.253285 0.322421
vt 0.128444 0.094890
vt 0.285690 0.175524
vt 0.300761 0.172844
vt 0.292256 0.181718
vt 0.285240 0.176860
vt 0.216557 0.247149
vt 0.221133 0.245780
vt 0.212879 0.249946
vt 0.195801 0.267962
vt 0.185177 0.252576
vt 0.182464 0.259938
vt 0.188442 0.263021
vt 0.228134 0.233748
vt 0.236678 0.230864
vt 0.765170 0.465155
vt 0.213599 0.271918
vt 0.204136 0.263702
vt 0.830274 0.447386
vt 0.776610 0.535289
vt 0.705001 0.680015
vt 0.470248 0.680015
vt 0.470248 0.597851
vt 0.705001 0.597851
vt 0.245170 0.140548
vt 0.199711 0.238243
vt 0.161680 0.263010
vt 0.200083 0.262431
vt 0.198277 0.249634
vt 0.195951 0.254190
vt 0.469952 0.702672
vt 0.469951 0.741915
vt 0.235198 0.741915
vt 0.235198 0.702672
vt 0.822604 0.183840
vt 0.859903 0.199090
vt 0.840247 0.237155
vt 0.705001 0.740695
vt 0.470248 0.740695
vt 0.470248 0.680311
vt 0.705001 0.680311
vt 0.814559 0.342730
vt 0.871312 0.246213
vt 0.808765 0.309804
vt 0.708271 0.597555
vt 0.843075 0.118182
vt 0.999852 0.328897
vt 0.896659 0.428117
vt 0.859452 0.389420
vt 0.962644 0.290200
vt 0.208035 0.263710
vt 0.218270 0.273060
vt 0.469952 0.690595
vt 0.235198 0.690595
vn 0.000000 1.000000 0.000000
vn 1.000000 0.000000 0.000000
vn -0.000000 0.913300 0.407300
vn -1.000000 0.000000 -0.000000
vn 0.000000 0.824300 -0.566200
vn 0.000000 0.000000 1.000000
vn 0.000000 0.000000 -1.000000
vn 0.000000 -1.000000 -0.000000
vn -0.000000 0.583100 0.812400
vn 0.000000 0.513400 -0.858200
vn -0.000000 -0.583100 0.812400
usemtl Material
s off
f 1/1/1 4/2/1 3/3/1 2/4/1
f 5/5/2 1/6/2 2/7/2 6/8/2
f 6/8/3 2/9/3 3/10/3 7/11/3
f 7/11/4 3/12/4 4/13/4 8/14/4
f 1/15/5 5/16/5 8/17/5 4/18/5
f 31/19/4 7/11/4 8/14/4 32/20/4
f 30/21/6 6/8/6 18/22/6 33/23/6
f 29/24/2 5/5/2 6/8/2 30/21/2
f 12/25/4 51/26/4 60/27/4 44/28/4
f 29/24/2 13/29/2 59/30/2 48/31/2
f 39/32/7 57/33/7 58/34/7 40/35/7
f 26/36/8 25/37/8 24/38/8 22/39/8
f 10/40/6 49/41/6 52/42/6 17/43/6
f 6/8/6 7/11/6 20/44/6 18/22/6
f 50/45/6 11/46/6 19/47/6 53/48/6
f 11/46/6 10/40/6 17/43/6 19/47/6
f 16/49/4 22/50/4 55/51/4
f 37/52/2 28/53/2 35/54/2 23/55/2
f 56/56/4 26/57/4 22/50/4 16/49/4
f 11/46/8 12/25/8 9/58/8 10/40/8
f 14/59/2 37/52/2 23/55/2 15/60/2
f 48/31/2 59/30/2 57/61/2 39/62/2
f 33/23/2 18/22/2 28/53/2 37/52/2
f 18/63/1 20/64/1 27/65/1 28/66/1
f 53/48/4 19/47/4 26/57/4 56/56/4
f 19/47/8 17/43/8 25/37/8 26/36/8
f 20/44/4 34/67/4 38/68/4 27/69/4
f 52/42/2 33/23/2 37/52/2 14/59/2
f 15/60/2 23/55/2 35/54/2 54/70/2
f 27/69/4 38/68/4 21/71/4 36/72/4
f 54/73/6 35/74/6 36/75/6 55/76/6
f 7/11/6 31/19/6 34/67/6 20/44/6
f 60/27/4 43/77/4 40/78/4 58/79/4
f 13/29/2 29/24/2 30/21/2 49/41/2
f 49/41/6 30/21/6 33/23/6 52/42/6
f 50/45/4 31/19/4 32/20/4 51/26/4
f 28/80/9 27/81/9 36/82/9 35/83/9
f 57/33/7 41/84/7 42/85/7 58/34/7
f 47/86/7 44/28/7 42/85/7 41/84/7
f 45/87/2 48/31/2 39/62/2
f 59/30/2 47/86/2 41/84/2 57/61/2
f 43/77/4 46/88/4 40/78/4
f 32/20/4 8/14/4 46/88/4 43/77/4
f 13/29/2 9/58/2 47/86/2 59/30/2
f 5/5/2 29/24/2 48/31/2 45/87/2
f 9/58/7 12/25/7 44/28/7 47/86/7
f 51/26/4 32/20/4 43/77/4 60/27/4
f 8/89/1 5/90/1 45/91/1 46/92/1
f 46/92/10 45/91/10 39/32/10 40/35/10
f 11/46/4 50/45/4 51/26/4 12/25/4
f 9/58/2 13/29/2 49/41/2 10/40/2
f 44/28/4 60/27/4 58/79/4 42/85/4
f 24/93/2 15/60/2 54/70/2
f 17/43/2 52/42/2 14/59/2 25/94/2
f 34/67/4 53/48/4 56/56/4 38/68/4
f 25/94/2 14/59/2 15/60/2 24/93/2
f 38/68/4 56/56/4 16/49/4 21/71/4
f 21/71/4 16/49/4 55/51/4 36/72/4
f 31/19/6 50/45/6 53/48/6 34/67/6
f 24/95/11 54/73/11 55/76/11 22/96/11
