# Blender v2.72 (sub 0) OBJ File: ''
# www.blender.org
mtllib mountain .mtl
o Cone
v 0.409540 -0.180532 -2.533051
v 0.844894 -0.180532 -2.490172
v 1.263518 -0.180532 -2.363183
v 1.217297 -0.180532 -1.789824
v 1.555459 -0.180532 -1.512301
v 1.832981 -0.180532 -1.174139
v 2.471227 -0.180532 -1.155475
v 2.921682 -0.237294 -0.736851
v 2.964561 -0.180532 -0.301496
v 0.409539 0.952911 -0.301496
v 2.921682 -0.180532 0.133858
v 2.471227 -0.180532 0.552483
v 2.809284 -0.103301 0.938289
v 2.531762 -0.180533 1.276451
v 1.649325 -0.180532 1.553974
v 1.263518 -0.278104 2.155622
v 0.844893 -0.180532 2.282610
v 0.409539 -0.180532 2.325489
v -0.025816 -0.180532 1.887180
v -0.444440 -0.180532 1.985123
v -0.830247 -0.180532 1.553973
v -1.168409 -0.180532 1.276450
v -1.445931 -0.180532 0.938288
v -1.652149 -0.180532 0.552481
v -1.779137 -0.180532 0.133857
v -1.822015 -0.180532 -0.301498
v -1.779136 -0.180532 -0.736853
v -1.652147 -0.180532 -1.155477
v -1.445929 -0.180532 -1.541284
v -1.168406 -0.180532 -1.879446
v -0.830243 -0.180532 -2.156968
v -0.444436 -0.180532 -2.363185
v -0.025812 -0.180533 -2.490172
v 0.600881 1.536765 -0.763436
v 0.507085 1.536765 -0.791889
v 0.409539 1.613996 -0.801496
v 0.311995 1.613996 -0.791889
v 0.218198 1.613996 -0.763436
v 0.131755 1.536765 -0.717231
v 0.055986 1.536765 -0.655050
v -0.006195 1.536765 -0.579282
v 0.909539 1.406363 -0.301496
v -0.052400 1.439193 -0.492838
v -0.080853 1.439193 -0.399042
v -0.090461 1.439193 -0.301497
v -0.080853 1.536765 -0.203951
v -0.052401 1.536765 -0.110155
v -0.006196 1.536765 -0.023711
v 0.055986 1.536765 0.052057
v 0.131754 1.457825 0.114239
v 0.218197 1.457825 0.160444
v 0.311994 1.457825 0.188897
v 0.409539 1.536765 0.198504
v 0.507084 1.536765 0.188897
v 0.600881 1.480003 0.160444
v 0.687325 1.418372 0.114239
v 0.763093 1.418372 0.052057
v 0.825274 1.480003 -0.023711
v 0.871479 1.536765 -0.110154
v 0.899932 1.406363 -0.203951
v 0.899932 1.406363 -0.399041
v 0.871479 1.536765 -0.492838
v 0.825274 1.422212 -0.579281
v 0.763093 1.422212 -0.655049
v 0.687325 1.422212 -0.717231
v 0.758111 0.587812 -1.413872
v 0.675989 0.678116 -1.721606
v 0.143091 0.678116 -1.450425
v -0.113119 0.678116 -1.372705
v -0.349244 0.678116 -1.246494
v -0.556210 0.678116 -1.267248
v -0.726062 0.678116 -1.060283
v 1.561856 0.678116 -0.301496
v -0.852274 0.678116 -0.824158
v -0.733927 0.678116 -0.567947
v -0.760170 0.678116 -0.301497
v -0.733927 0.678116 -0.035047
v -0.852275 0.678116 0.221163
v -0.726063 0.678116 0.457288
v -0.556212 0.678116 0.664254
v -0.349246 0.678116 1.068408
v -0.113121 0.678116 1.194619
v 0.143089 0.678116 1.272340
v 0.409539 0.678116 1.064281
v 0.675989 0.678116 1.038038
v 0.932200 0.678116 0.960318
v 1.168325 0.678116 0.834106
v 1.375290 0.678116 0.664254
v 1.545142 0.678116 0.457289
v 1.671353 0.678116 0.221164
v 1.535613 0.678116 -0.035046
v 1.749074 0.678116 -0.567946
v 1.671353 0.678116 -0.824156
v 1.260055 0.678116 -0.782012
v 1.189089 0.648486 -0.953135
v 0.982124 0.648486 -1.122987
v 0.409540 0.678116 -1.667273
v 2.024249 0.248792 -0.301496
v 2.228647 0.248792 0.049406
v 2.096418 0.220411 -0.652398
v 0.367509 1.146776 -0.695287
v 0.499080 1.131278 -0.678536
v 0.443791 1.127571 -0.689197
v 0.331963 1.143859 -0.691502
v 0.297674 1.146776 -0.681396
v 0.229529 1.127571 -0.646577
v 0.133339 1.086742 -0.577698
v 0.120186 1.092069 -0.560326
v 0.783901 1.042509 -0.301496
v 0.085456 1.069220 -0.494704
v 0.037756 1.063343 -0.375449
v 0.036188 1.069220 -0.247017
v 0.054070 1.075541 -0.192939
v 0.059574 1.084256 -0.171856
v 0.095670 1.084256 -0.104326
v 0.115012 1.087982 -0.080522
v 0.161822 1.079143 -0.013042
v 0.263531 1.075109 0.051000
v 0.380733 1.079143 0.077635
v 0.453578 1.089558 0.085327
v 0.486882 1.098851 0.071258
v 0.584883 1.053122 0.030386
v 0.700836 1.053122 -0.064774
v 0.757517 1.056290 -0.155629
v 0.747504 1.064557 -0.451738
v 0.675900 1.052583 -0.567857
v 0.563589 1.060275 -0.642923
vt 0.650206 0.039242
vt 0.611141 0.034247
vt 0.650499 0.036051
vt 0.650499 0.032848
vt 0.648370 0.026130
vt 0.647471 0.045736
vt 0.641499 0.055186
vt 0.640283 0.056778
vt 0.634523 0.060646
vt 0.624801 0.066759
vt 0.606765 0.069240
vt 0.618240 0.068791
vt 0.601814 0.067938
vt 0.599733 0.067693
vt 0.593595 0.064675
vt 0.591312 0.063125
vt 0.585239 0.058936
vt 0.579078 0.050137
vt 0.575807 0.039906
vt 0.572916 0.661771
vt 0.564968 0.618197
vt 0.580556 0.655139
vt 0.574950 0.030203
vt 0.574296 0.033473
vt 0.579162 0.020775
vt 0.586650 0.009665
vt 0.616378 0.646720
vt 0.599826 0.608905
vt 0.624036 0.642477
vt 0.606947 0.000122
vt 0.594145 0.003716
vt 0.620857 0.001136
vt 0.544536 0.652923
vt 0.537796 0.619845
vt 0.551673 0.618447
vt 0.553290 0.652791
vt 0.631930 0.006335
vt 0.640221 0.015127
vt 0.646973 0.021288
vt 0.431990 0.791225
vt 0.424367 0.829548
vt 0.409414 0.865647
vt 0.358854 0.856519
vt 0.331225 0.884148
vt 0.298737 0.905856
vt 0.291928 0.962479
vt 0.251383 0.999878
vt 0.211984 0.999474
vt 0.173604 0.992148
vt 0.139999 0.948701
vt 0.102947 0.976521
vt 0.075111 0.948246
vt 0.057543 0.867511
vt 0.007327 0.827144
vt 0.000122 0.787764
vt 0.000122 0.748690
vt 0.042894 0.713830
vt 0.037853 0.675761
vt 0.079555 0.645242
vt 0.107184 0.617613
vt 0.139672 0.595905
vt 0.175771 0.580952
vt 0.214094 0.573329
vt 0.253167 0.573329
vt 0.291490 0.580952
vt 0.327589 0.595905
vt 0.360078 0.617613
vt 0.387707 0.645242
vt 0.409415 0.677731
vt 0.424367 0.713830
vt 0.431990 0.752152
vt 0.307436 0.449990
vt 0.303572 0.343753
vt 0.312526 0.342372
vt 0.331573 0.446115
vt 0.362993 0.449336
vt 0.321258 0.339999
vt 0.332494 0.340667
vt 0.387635 0.444273
vt 0.283050 0.450636
vt 0.293905 0.349756
vt 0.265756 0.458559
vt 0.284795 0.349100
vt 0.242110 0.452374
vt 0.276133 0.346962
vt 0.219550 0.443333
vt 0.263641 0.348870
vt 0.206478 0.421762
vt 0.255659 0.344193
vt 0.187592 0.406981
vt 0.248401 0.338657
vt 0.171073 0.389661
vt 0.245624 0.326280
vt 0.148135 0.379101
vt 0.239734 0.319322
vt 0.136860 0.358023
vt 0.235242 0.311649
vt 0.128633 0.335749
vt 0.231793 0.303422
vt 0.109109 0.301218
vt 0.224285 0.294782
vt 0.107323 0.278334
vt 0.223199 0.285704
vt 0.109943 0.255556
vt 0.223443 0.276793
vt 0.128495 0.233678
vt 0.230336 0.269022
vt 0.137873 0.211379
vt 0.233315 0.261592
vt 0.150853 0.190746
vt 0.234668 0.252322
vt 0.166809 0.172172
vt 0.237316 0.243224
vt 0.185456 0.156071
vt 0.243086 0.238089
vt 0.206424 0.142770
vt 0.251876 0.236801
vt 0.229685 0.134104
vt 0.260746 0.236781
vt 0.253581 0.143254
vt 0.269638 0.226011
vt 0.276435 0.142602
vt 0.277696 0.225233
vt 0.301759 0.132638
vt 0.285753 0.225581
vt 0.323239 0.138216
vt 0.294898 0.235607
vt 0.436718 0.353236
vt 0.364367 0.317876
vt 0.361629 0.303713
vt 0.467740 0.333898
vt 0.432296 0.369200
vt 0.359273 0.325901
vt 0.417288 0.387898
vt 0.353450 0.333090
vt 0.403936 0.418754
vt 0.339584 0.334826
vt 0.324702 0.572737
vt 0.364726 0.566307
vt 0.402966 0.554736
vt 0.439207 0.538270
vt 0.284796 0.573085
vt 0.245312 0.568298
vt 0.206645 0.558093
vt 0.169822 0.542631
vt 0.135582 0.522219
vt 0.104569 0.497783
vt 0.077675 0.468952
vt 0.054858 0.436997
vt 0.036612 0.401989
vt 0.023594 0.364997
vt 0.015187 0.326103
vt 0.000122 0.276908
vt 0.016455 0.242150
vt 0.000122 0.191812
vt 0.014285 0.157260
vt 0.029918 0.121392
vt 0.088292 0.097047
vt 0.130243 0.026858
vt 0.163879 0.008843
vt 0.204176 0.028819
vt 0.247696 0.000298
vt 0.248308 0.071984
vt 0.279878 0.088959
vt 0.311153 0.083478
vt 0.357027 0.039675
vt 0.320973 0.002898
vt 0.524196 0.399161
vt 0.574051 0.368478
vt 0.503909 0.433184
vt 0.479324 0.464553
vt 0.473110 0.517449
vt 0.284276 0.000122
vt 0.463297 0.645440
vt 0.488780 0.610854
vt 0.491672 0.612233
vt 0.470868 0.649837
vt 0.478615 0.653915
vt 0.494376 0.613950
vt 0.501276 0.615383
vt 0.489524 0.651628
vt 0.459438 0.634984
vt 0.483901 0.605770
vt 0.452338 0.629862
vt 0.477214 0.596811
vt 0.445466 0.624438
vt 0.475405 0.595950
vt 0.444214 0.612148
vt 0.471716 0.590073
vt 0.438033 0.605949
vt 0.463741 0.581810
vt 0.432234 0.599390
vt 0.455995 0.573331
vt 0.670631 0.600811
vt 0.634494 0.577628
vt 0.637272 0.573329
vt 0.669081 0.588555
vt 0.665168 0.607652
vt 0.633880 0.579633
vt 0.659350 0.614194
vt 0.629335 0.584743
vt 0.653188 0.620413
vt 0.627636 0.586918
vt 0.641992 0.621414
vt 0.622031 0.591715
vt 0.635164 0.626894
vt 0.613584 0.598350
vt 0.628031 0.631970
vt 0.604898 0.604669
vt 0.574221 0.615759
vt 0.587752 0.647712
vt 0.606274 0.646225
vt 0.597198 0.610958
vt 0.596025 0.644845
vt 0.586881 0.611371
vt 0.562017 0.652100
vt 0.526569 0.652593
vt 0.534494 0.663480
vt 0.517987 0.650867
vt 0.525906 0.616976
vt 0.509527 0.648611
vt 0.514163 0.614118
vt 0.497634 0.654926
vt 0.505753 0.617697
vn 0.194100 0.895800 0.400000
vn 0.190400 0.888700 0.417200
vn -0.016300 0.888700 0.458300
vn -0.039900 0.883000 0.467700
vn 0.410400 0.911400 0.031200
vn 0.105900 0.920400 0.376500
vn 0.254300 0.955600 0.148800
vn 0.291800 0.955600 -0.040200
vn 0.265100 0.943700 -0.198000
vn 0.180600 0.891400 -0.415600
vn 0.295200 0.942300 -0.157800
vn 0.197400 0.931300 -0.306200
vn 0.341600 0.932800 -0.114800
vn 0.194100 0.949000 -0.248600
vn 0.038500 0.949000 -0.313000
vn -0.912700 0.247300 -0.325500
vn -0.363900 0.890500 -0.273100
vn 0.246800 0.883900 -0.397300
vn -0.166800 0.964800 -0.203200
vn -0.095300 0.235400 -0.967200
vn -0.230700 0.963900 -0.132800
vn -0.228300 0.953800 0.195300
vn -0.916400 0.346100 0.200900
vn -0.282400 0.956300 0.075500
vn -0.104600 0.961200 0.255100
vn 0.528500 0.712000 0.462300
vn -0.026200 0.895800 0.443800
vn -0.137300 0.907600 0.396700
vn -0.002000 -1.000000 -0.001700
vn -0.234900 0.587400 -0.774500
vn 0.064100 0.708900 -0.702400
vn -0.481300 0.614500 -0.625100
vn -0.116000 0.600000 -0.791600
vn -0.545700 0.708300 -0.447800
vn -0.682900 0.715300 -0.148600
vn -0.740600 0.644400 0.190200
vn -0.748700 0.658800 -0.073700
vn -0.775900 0.624200 -0.090900
vn -0.776000 0.598500 -0.199300
vn -0.622500 0.708300 0.332800
vn -0.545700 0.708300 0.447800
vn -0.503200 0.748600 0.431800
vn -0.277900 0.807700 0.519900
vn -0.169300 0.812300 0.558200
vn 0.188400 0.743700 0.641400
vn 0.069200 0.708300 0.702500
vn 0.306500 0.715600 0.627700
vn 0.421800 0.739400 0.524800
vn 0.413400 0.758500 0.503700
vn 0.432400 0.739400 0.516100
vn 0.555800 0.715600 0.423000
vn 0.734300 0.531000 -0.422900
vn 0.742900 0.665400 0.073200
vn 0.676200 0.658800 0.329900
vn 0.700700 0.711500 0.052500
vn 0.010600 0.323500 -0.946200
vn 0.706800 0.548300 -0.447000
vn 0.532600 0.543300 -0.649000
vn 0.672900 0.506900 -0.538700
vn -0.424800 0.594400 -0.682800
vn 0.840800 0.434300 -0.323300
vn -0.184400 0.772300 -0.607900
vn -0.011800 0.688700 -0.724900
vn -0.301900 0.768000 -0.564800
vn -0.290500 0.731700 -0.616700
vn -0.622500 0.708300 -0.332800
vn -0.680000 0.733100 -0.008700
vn -0.627600 0.776100 -0.061800
vn -0.627600 0.776100 0.061800
vn -0.680000 0.733100 0.008700
vn -0.581500 0.667500 0.465100
vn -0.503700 0.656000 0.562100
vn 0.023300 0.629100 0.777000
vn -0.213000 0.730200 0.649200
vn 0.055300 0.825300 0.561900
vn 0.277900 0.797200 0.536000
vn 0.466000 0.732400 0.496400
vn 0.258100 0.733700 0.628600
vn 0.370500 0.827700 0.421400
vn 0.663300 0.680900 -0.310500
vn 0.558800 0.787300 0.260600
vn 0.595700 0.784600 -0.171900
vn 0.723000 0.633900 0.274600
vn 0.617000 0.762400 -0.195100
vn -0.020700 0.374000 -0.927200
vn 0.632700 0.616400 -0.468800
vn 0.495000 0.625500 -0.603100
vn 0.793400 0.573700 -0.203500
vn -0.236400 0.732100 -0.638800
vn 0.530600 0.709500 -0.463700
vn 0.467100 0.879000 -0.095900
vn 0.444400 0.892200 -0.080100
vn 0.286100 0.212200 0.934400
vn 0.038300 0.227300 0.973100
vn 0.337000 0.227300 0.913600
vn 0.548900 0.249300 0.797800
vn 0.761700 0.238300 0.602500
vn 0.753700 0.257200 0.604800
vn 0.890700 0.315800 0.327100
vn 0.948000 0.315800 0.038700
vn 0.904200 0.257700 -0.340500
vn 0.919200 0.264600 -0.291800
vn 0.848700 0.271900 -0.453600
vn 0.738300 0.277200 -0.614900
vn 0.783500 0.261400 -0.563700
vn 0.486600 0.302900 -0.819400
vn 0.235300 0.302900 -0.923500
vn -0.829000 0.287800 -0.479500
vn -0.238300 0.964400 -0.115000
vn -0.216500 0.262600 -0.940300
vn -0.265300 0.290100 -0.919500
vn -0.597800 0.334900 -0.728400
vn -0.036900 0.257400 -0.965600
vn -0.100700 0.941600 -0.321200
vn -0.928100 0.337900 -0.156400
vn -0.951400 0.263600 0.159200
vn -0.770100 0.253100 0.585500
vn -0.783200 0.332700 0.525300
vn -0.548100 0.327900 0.769500
vn -0.199500 0.254900 0.946200
vn 0.093200 0.212200 0.972800
vn -0.250800 0.265200 0.931000
vn -0.784400 0.240200 -0.571900
usemtl None
s off
f 105/1/1 10/2/1 104/3/1
f 101/4/2 10/2/2 103/5/2
f 106/6/3 10/2/3 105/1/3
f 107/7/4 10/2/4 106/6/4
f 108/8/5 10/2/5 107/7/5
f 110/9/6 10/2/6 108/8/6
f 111/10/7 10/2/7 110/9/7
f 112/11/8 10/2/8 111/12/8
f 113/13/9 10/2/9 112/11/9
f 114/14/10 10/2/10 113/13/10
f 115/15/11 10/2/11 114/14/11
f 116/16/12 10/2/12 115/15/12
f 117/17/13 10/2/13 116/16/13
f 118/18/14 10/2/14 117/17/14
f 119/19/15 10/2/15 118/18/15
f 59/20/16 124/21/16 58/22/16
f 121/23/17 10/2/17 120/24/17
f 122/25/18 10/2/18 121/23/18
f 123/26/19 10/2/19 122/25/19
f 54/27/20 120/28/20 53/29/20
f 109/30/21 10/2/21 124/31/21
f 125/32/22 10/2/22 109/30/22
f 61/33/23 125/34/23 109/35/23 42/36/23
f 126/37/24 10/2/24 125/32/24
f 127/38/25 10/2/25 126/37/25
f 102/39/26 10/2/26 127/38/26
f 104/3/27 10/2/27 101/4/27
f 103/5/28 10/2/28 102/39/28
f 1/40/29 2/41/29 3/42/29 4/43/29 5/44/29 6/45/29 7/46/29 8/47/29 9/48/29 11/49/29 12/50/29 13/51/29 14/52/29 15/53/29 16/54/29 17/55/29 18/56/29 19/57/29 20/58/29 21/59/29 22/60/29 23/61/29 24/62/29 25/63/29 26/64/29 27/65/29 28/66/29 29/67/29 30/68/29 31/69/29 32/70/29 33/71/29
f 69/72/30 38/73/30 37/74/30 68/75/30
f 97/76/31 36/77/31 35/78/31 67/79/31
f 70/80/32 39/81/32 38/73/32 69/72/32
f 71/82/33 40/83/33 39/81/33 70/80/33
f 72/84/34 41/85/34 40/83/34 71/82/34
f 74/86/35 43/87/35 41/85/35 72/84/35
f 75/88/36 44/89/36 43/87/36 74/86/36
f 76/90/37 45/91/37 44/89/37 75/88/37
f 77/92/38 46/93/38 45/91/38 76/90/38
f 78/94/39 47/95/39 46/93/39 77/92/39
f 79/96/40 48/97/40 47/95/40 78/94/40
f 80/98/41 49/99/41 48/97/41 79/96/41
f 81/100/42 50/101/42 49/99/42 80/98/42
f 82/102/43 51/103/43 50/101/43 81/100/43
f 83/104/44 52/105/44 51/103/44 82/102/44
f 84/106/45 53/107/45 52/105/45 83/104/45
f 85/108/46 54/109/46 53/107/46 84/106/46
f 86/110/47 55/111/47 54/109/47 85/108/47
f 87/112/48 56/113/48 55/111/48 86/110/48
f 88/114/49 57/115/49 56/113/49 87/112/49
f 89/116/50 58/117/50 57/115/50 88/114/50
f 90/118/51 59/119/51 58/117/51 89/116/51
f 91/120/52 60/121/52 59/119/52 90/118/52
f 73/122/53 42/123/53 60/121/53 91/120/53
f 92/124/54 61/125/54 42/123/54 73/122/54
f 93/126/55 62/127/55 61/125/55 92/124/55
f 94/128/56 63/129/56 62/130/56 93/131/56
f 95/132/57 64/133/57 63/129/57 94/128/57
f 96/134/58 65/135/58 64/133/58 95/132/58
f 66/136/59 34/137/59 65/135/59 96/134/59
f 68/75/60 37/74/60 36/77/60 97/76/60
f 67/79/61 35/78/61 34/137/61 66/136/61
f 32/138/62 69/72/62 68/75/62 33/139/62
f 1/140/63 97/76/63 67/79/63 2/141/63
f 31/142/64 70/80/64 69/72/64 32/138/64
f 30/143/65 71/82/65 70/80/65 31/142/65
f 29/144/34 72/84/34 71/82/34 30/143/34
f 28/145/66 74/86/66 72/84/66 29/144/66
f 27/146/67 75/88/67 74/86/67 28/145/67
f 26/147/68 76/90/68 75/88/68 27/146/68
f 25/148/69 77/92/69 76/90/69 26/147/69
f 24/149/70 78/94/70 77/92/70 25/148/70
f 23/150/40 79/96/40 78/94/40 24/149/40
f 22/151/41 80/98/41 79/96/41 23/150/41
f 21/152/71 81/100/71 80/98/71 22/151/71
f 20/153/72 82/102/72 81/100/72 21/152/72
f 19/154/73 83/104/73 82/102/73 20/153/73
f 18/155/74 84/106/74 83/104/74 19/154/74
f 17/156/75 85/108/75 84/106/75 18/155/75
f 16/157/76 86/110/76 85/108/76 17/156/76
f 15/158/77 87/112/77 86/110/77 16/157/77
f 14/159/78 88/114/78 87/112/78 15/158/78
f 13/160/79 89/116/79 88/114/79 14/159/79
f 12/161/80 90/118/80 89/116/80 13/160/80
f 11/162/81 99/163/81 91/120/81 90/118/81 12/161/81
f 98/164/82 73/122/82 91/120/82 99/163/82
f 100/165/83 92/124/83 73/122/83 98/164/83
f 7/166/84 93/126/84 92/124/84 100/165/84 8/167/84
f 6/168/85 94/128/85 93/131/85 7/169/85
f 5/170/86 95/132/86 94/128/86 6/168/86
f 4/171/87 96/134/87 95/132/87 5/170/87
f 3/172/88 66/136/88 96/134/88 4/171/88
f 33/139/89 68/75/89 97/76/89 1/140/89
f 2/141/90 67/79/90 66/136/90 3/172/90
f 9/173/91 98/164/91 99/163/91 11/162/91
f 8/167/92 100/165/92 98/164/92 9/173/92
f 38/174/93 105/175/93 104/176/93 37/177/93
f 36/178/94 101/179/94 103/180/94 35/181/94
f 39/182/95 106/183/95 105/175/95 38/174/95
f 40/184/96 107/185/96 106/183/96 39/182/96
f 41/186/97 108/187/97 107/185/97 40/184/97
f 43/188/98 110/189/98 108/187/98 41/186/98
f 44/190/99 111/191/99 110/189/99 43/188/99
f 45/192/100 112/193/100 111/191/100 44/190/100
f 46/194/101 113/195/101 112/196/101 45/197/101
f 47/198/102 114/199/102 113/195/102 46/194/102
f 48/200/103 115/201/103 114/199/103 47/198/103
f 49/202/104 116/203/104 115/201/104 48/200/104
f 50/204/105 117/205/105 116/203/105 49/202/105
f 51/206/106 118/207/106 117/205/106 50/204/106
f 52/208/107 119/209/107 118/207/107 51/206/107
f 58/22/108 124/21/108 123/210/108 57/211/108
f 124/31/109 10/2/109 123/26/109
f 55/212/110 121/213/110 120/28/110 54/27/110
f 56/214/111 122/215/111 121/213/111 55/212/111
f 57/211/112 123/210/112 122/215/112 56/214/112
f 53/29/113 120/28/113 119/209/113 52/208/113
f 120/24/114 10/2/114 119/19/114
f 42/36/115 109/35/115 124/21/115 60/216/115
f 63/217/116 125/34/116 62/218/116
f 62/218/117 125/34/117 61/33/117
f 64/219/118 126/220/118 125/34/118 63/217/118
f 65/221/119 127/222/119 126/220/119 64/219/119
f 34/223/120 102/224/120 127/222/120 65/221/120
f 37/177/121 104/176/121 101/179/121 36/178/121
f 35/181/122 103/180/122 102/224/122 34/223/122
f 60/216/123 124/21/123 59/20/123
